<?xml version="1.0" encoding="UTF-8" standalone="no"?>
<svg
   xmlns:dc="http://purl.org/dc/elements/1.1/"
   xmlns:cc="http://creativecommons.org/ns#"
   xmlns:rdf="http://www.w3.org/1999/02/22-rdf-syntax-ns#"
   xmlns:svg="http://www.w3.org/2000/svg"
   xmlns="http://www.w3.org/2000/svg"
   xmlns:sodipodi="http://sodipodi.sourceforge.net/DTD/sodipodi-0.dtd"
   xmlns:inkscape="http://www.inkscape.org/namespaces/inkscape"
   sodipodi:docname="loupe-w.svg"
   inkscape:version="1.0 (4035a4fb49, 2020-05-01)"
   id="svg8"
   version="1.1"
   viewBox="0 0 440.46472 440.61459"
   height="440.61459mm"
   width="440.46472mm">
  <defs
     id="defs2" />
  <sodipodi:namedview
     inkscape:window-maximized="1"
     inkscape:window-y="-9"
     inkscape:window-x="-9"
     inkscape:window-height="1001"
     inkscape:window-width="1920"
     showgrid="false"
     inkscape:document-rotation="0"
     inkscape:current-layer="layer1"
     inkscape:document-units="mm"
     inkscape:cy="909.70671"
     inkscape:cx="966.44231"
     inkscape:zoom="0.35355339"
     inkscape:pageshadow="2"
     inkscape:pageopacity="0.0"
     borderopacity="1.0"
     bordercolor="#666666"
     pagecolor="#ffffff"
     id="base"
     fit-margin-top="0"
     fit-margin-left="0"
     fit-margin-right="0"
     fit-margin-bottom="0" />
  <metadata
     id="metadata5">
    <rdf:RDF>
      <cc:Work
         rdf:about="">
        <dc:format>image/svg+xml</dc:format>
        <dc:type
           rdf:resource="http://purl.org/dc/dcmitype/StillImage" />
        <dc:title></dc:title>
      </cc:Work>
    </rdf:RDF>
  </metadata>
  <g
     id="layer1"
     inkscape:groupmode="layer"
     inkscape:label="Слой 1"
     transform="translate(51.189086,31.860673)">
    <path
       d="M 113.49802,-31.860664 A 164.79762,164.79762 0 0 0 -51.189086,132.9365 164.79762,164.79762 0 0 0 113.6086,297.73421 164.79762,164.79762 0 0 0 208.96971,267.3407 l 133.36086,133.35878 a 27.5,27.5 0 0 0 38.89062,0 27.5,27.5 0 0 0 0,-38.89065 L 247.88723,228.47486 A 164.79762,164.79762 0 0 0 278.40628,132.9365 164.79762,164.79762 0 0 0 113.6086,-31.860664 a 164.79762,164.79762 0 0 0 -0.11058,0 z m 0.014,55.184226 a 109.6131,109.6131 0 0 1 0.0966,0 A 109.6131,109.6131 0 0 1 223.22155,132.9365 109.6131,109.6131 0 0 1 113.6086,242.54997 109.6131,109.6131 0 0 1 3.9956635,132.9365 109.6131,109.6131 0 0 1 113.51197,23.323562 Z"
       style="fill:#ffffff;stroke-width:0.305607;stroke-linejoin:round"
       id="circle26" />
  </g>
</svg>
